<mxfile host="app.diagrams.net" modified="2022-03-07T17:04:38.737Z" agent="5.0 (X11)" etag="ZeFm1RKITkSxvBK10WGP" version="16.6.4" type="github">
  <diagram id="lIXflueDXwlFgS-yDPTz" name="Page-1">
    <mxGraphModel dx="782" dy="633" grid="1" gridSize="10" guides="1" tooltips="1" connect="1" arrows="1" fold="1" page="1" pageScale="1" pageWidth="1169" pageHeight="1654" math="0" shadow="0">
      <root>
        <mxCell id="0" />
        <mxCell id="1" parent="0" />
        <mxCell id="W7IP5yYAX6OJ8UJhBNVD-4" value="[0-9]" style="edgeStyle=orthogonalEdgeStyle;rounded=0;orthogonalLoop=1;jettySize=auto;html=1;exitX=1;exitY=0.5;exitDx=0;exitDy=0;entryX=0;entryY=0.5;entryDx=0;entryDy=0;" parent="1" source="W7IP5yYAX6OJ8UJhBNVD-2" target="W7IP5yYAX6OJ8UJhBNVD-3" edge="1">
          <mxGeometry relative="1" as="geometry" />
        </mxCell>
        <mxCell id="W7IP5yYAX6OJ8UJhBNVD-2" value="0" style="ellipse;whiteSpace=wrap;html=1;aspect=fixed;" parent="1" vertex="1">
          <mxGeometry x="160" y="330" width="40" height="40" as="geometry" />
        </mxCell>
        <mxCell id="W7IP5yYAX6OJ8UJhBNVD-7" value="[ . ]" style="edgeStyle=orthogonalEdgeStyle;rounded=0;orthogonalLoop=1;jettySize=auto;html=1;" parent="1" source="W7IP5yYAX6OJ8UJhBNVD-3" target="W7IP5yYAX6OJ8UJhBNVD-6" edge="1">
          <mxGeometry relative="1" as="geometry" />
        </mxCell>
        <mxCell id="W7IP5yYAX6OJ8UJhBNVD-12" value="" style="edgeStyle=orthogonalEdgeStyle;rounded=0;orthogonalLoop=1;jettySize=auto;html=1;" parent="1" source="W7IP5yYAX6OJ8UJhBNVD-3" target="W7IP5yYAX6OJ8UJhBNVD-11" edge="1">
          <mxGeometry relative="1" as="geometry" />
        </mxCell>
        <mxCell id="W7IP5yYAX6OJ8UJhBNVD-26" value="[eE]" style="edgeStyle=orthogonalEdgeStyle;rounded=0;orthogonalLoop=1;jettySize=auto;html=1;exitX=1;exitY=1;exitDx=0;exitDy=0;entryX=0;entryY=1;entryDx=0;entryDy=0;" parent="1" source="W7IP5yYAX6OJ8UJhBNVD-3" target="W7IP5yYAX6OJ8UJhBNVD-16" edge="1">
          <mxGeometry relative="1" as="geometry">
            <mxPoint x="304" y="420" as="targetPoint" />
            <Array as="points">
              <mxPoint x="304" y="420" />
              <mxPoint x="636" y="420" />
            </Array>
          </mxGeometry>
        </mxCell>
        <mxCell id="W7IP5yYAX6OJ8UJhBNVD-3" value="33" style="ellipse;whiteSpace=wrap;html=1;aspect=fixed;" parent="1" vertex="1">
          <mxGeometry x="270" y="330" width="40" height="40" as="geometry" />
        </mxCell>
        <mxCell id="W7IP5yYAX6OJ8UJhBNVD-15" value="[0-9]" style="edgeStyle=orthogonalEdgeStyle;rounded=0;orthogonalLoop=1;jettySize=auto;html=1;" parent="1" source="W7IP5yYAX6OJ8UJhBNVD-6" target="W7IP5yYAX6OJ8UJhBNVD-14" edge="1">
          <mxGeometry relative="1" as="geometry" />
        </mxCell>
        <mxCell id="W7IP5yYAX6OJ8UJhBNVD-6" value="34" style="ellipse;whiteSpace=wrap;html=1;aspect=fixed;" parent="1" vertex="1">
          <mxGeometry x="390" y="330" width="40" height="40" as="geometry" />
        </mxCell>
        <mxCell id="W7IP5yYAX6OJ8UJhBNVD-10" value="[0-9]" style="edgeStyle=orthogonalEdgeStyle;rounded=0;orthogonalLoop=1;jettySize=auto;html=1;exitX=0;exitY=0;exitDx=0;exitDy=0;entryX=1;entryY=0;entryDx=0;entryDy=0;" parent="1" source="W7IP5yYAX6OJ8UJhBNVD-3" target="W7IP5yYAX6OJ8UJhBNVD-3" edge="1">
          <mxGeometry relative="1" as="geometry">
            <Array as="points">
              <mxPoint x="276" y="240" />
              <mxPoint x="304" y="240" />
            </Array>
          </mxGeometry>
        </mxCell>
        <mxCell id="W7IP5yYAX6OJ8UJhBNVD-11" value="3" style="ellipse;whiteSpace=wrap;html=1;aspect=fixed;" parent="1" vertex="1">
          <mxGeometry x="270" y="450" width="40" height="40" as="geometry" />
        </mxCell>
        <mxCell id="W7IP5yYAX6OJ8UJhBNVD-13" value="CT_INT" style="text;html=1;strokeColor=none;fillColor=none;align=center;verticalAlign=middle;whiteSpace=wrap;rounded=0;" parent="1" vertex="1">
          <mxGeometry x="260" y="500" width="60" height="30" as="geometry" />
        </mxCell>
        <mxCell id="W7IP5yYAX6OJ8UJhBNVD-17" value="[eE]" style="edgeStyle=orthogonalEdgeStyle;rounded=0;orthogonalLoop=1;jettySize=auto;html=1;" parent="1" source="W7IP5yYAX6OJ8UJhBNVD-14" target="W7IP5yYAX6OJ8UJhBNVD-16" edge="1">
          <mxGeometry relative="1" as="geometry" />
        </mxCell>
        <mxCell id="W7IP5yYAX6OJ8UJhBNVD-28" style="edgeStyle=orthogonalEdgeStyle;rounded=0;orthogonalLoop=1;jettySize=auto;html=1;exitX=0.5;exitY=1;exitDx=0;exitDy=0;entryX=0;entryY=0.5;entryDx=0;entryDy=0;" parent="1" source="W7IP5yYAX6OJ8UJhBNVD-14" target="W7IP5yYAX6OJ8UJhBNVD-23" edge="1">
          <mxGeometry relative="1" as="geometry">
            <mxPoint x="530" y="470" as="targetPoint" />
          </mxGeometry>
        </mxCell>
        <mxCell id="W7IP5yYAX6OJ8UJhBNVD-14" value="35" style="ellipse;whiteSpace=wrap;html=1;aspect=fixed;" parent="1" vertex="1">
          <mxGeometry x="510" y="330" width="40" height="40" as="geometry" />
        </mxCell>
        <mxCell id="W7IP5yYAX6OJ8UJhBNVD-19" value="[+-]" style="edgeStyle=orthogonalEdgeStyle;rounded=0;orthogonalLoop=1;jettySize=auto;html=1;" parent="1" source="W7IP5yYAX6OJ8UJhBNVD-16" target="W7IP5yYAX6OJ8UJhBNVD-18" edge="1">
          <mxGeometry relative="1" as="geometry" />
        </mxCell>
        <mxCell id="W7IP5yYAX6OJ8UJhBNVD-16" value="36" style="ellipse;whiteSpace=wrap;html=1;aspect=fixed;" parent="1" vertex="1">
          <mxGeometry x="630" y="330" width="40" height="40" as="geometry" />
        </mxCell>
        <mxCell id="W7IP5yYAX6OJ8UJhBNVD-21" value="[0-9]" style="edgeStyle=orthogonalEdgeStyle;rounded=0;orthogonalLoop=1;jettySize=auto;html=1;" parent="1" source="W7IP5yYAX6OJ8UJhBNVD-18" target="W7IP5yYAX6OJ8UJhBNVD-20" edge="1">
          <mxGeometry relative="1" as="geometry" />
        </mxCell>
        <mxCell id="W7IP5yYAX6OJ8UJhBNVD-18" value="37" style="ellipse;whiteSpace=wrap;html=1;aspect=fixed;" parent="1" vertex="1">
          <mxGeometry x="750" y="330" width="40" height="40" as="geometry" />
        </mxCell>
        <mxCell id="W7IP5yYAX6OJ8UJhBNVD-24" value="" style="edgeStyle=orthogonalEdgeStyle;rounded=0;orthogonalLoop=1;jettySize=auto;html=1;" parent="1" source="W7IP5yYAX6OJ8UJhBNVD-20" target="W7IP5yYAX6OJ8UJhBNVD-23" edge="1">
          <mxGeometry relative="1" as="geometry" />
        </mxCell>
        <mxCell id="W7IP5yYAX6OJ8UJhBNVD-20" value="38" style="ellipse;whiteSpace=wrap;html=1;aspect=fixed;" parent="1" vertex="1">
          <mxGeometry x="870" y="330" width="40" height="40" as="geometry" />
        </mxCell>
        <mxCell id="W7IP5yYAX6OJ8UJhBNVD-22" value="[0-9]" style="edgeStyle=orthogonalEdgeStyle;rounded=0;orthogonalLoop=1;jettySize=auto;html=1;exitX=0;exitY=0;exitDx=0;exitDy=0;entryX=1;entryY=0;entryDx=0;entryDy=0;" parent="1" source="W7IP5yYAX6OJ8UJhBNVD-20" target="W7IP5yYAX6OJ8UJhBNVD-20" edge="1">
          <mxGeometry relative="1" as="geometry">
            <Array as="points">
              <mxPoint x="876" y="240" />
              <mxPoint x="904" y="240" />
            </Array>
          </mxGeometry>
        </mxCell>
        <mxCell id="W7IP5yYAX6OJ8UJhBNVD-23" value="8" style="ellipse;whiteSpace=wrap;html=1;aspect=fixed;" parent="1" vertex="1">
          <mxGeometry x="870" y="450" width="40" height="40" as="geometry" />
        </mxCell>
        <mxCell id="W7IP5yYAX6OJ8UJhBNVD-25" value="CT_REAL" style="text;html=1;strokeColor=none;fillColor=none;align=center;verticalAlign=middle;whiteSpace=wrap;rounded=0;" parent="1" vertex="1">
          <mxGeometry x="860" y="490" width="60" height="30" as="geometry" />
        </mxCell>
        <mxCell id="W7IP5yYAX6OJ8UJhBNVD-27" value="[0-9]" style="edgeStyle=orthogonalEdgeStyle;rounded=0;orthogonalLoop=1;jettySize=auto;html=1;exitX=0;exitY=0;exitDx=0;exitDy=0;entryX=1;entryY=0;entryDx=0;entryDy=0;" parent="1" source="W7IP5yYAX6OJ8UJhBNVD-14" target="W7IP5yYAX6OJ8UJhBNVD-14" edge="1">
          <mxGeometry relative="1" as="geometry">
            <Array as="points">
              <mxPoint x="516" y="240" />
              <mxPoint x="544" y="240" />
            </Array>
          </mxGeometry>
        </mxCell>
        <mxCell id="W7IP5yYAX6OJ8UJhBNVD-29" value="40" style="ellipse;whiteSpace=wrap;html=1;aspect=fixed;" parent="1" vertex="1">
          <mxGeometry x="275" y="455" width="30" height="30" as="geometry" />
        </mxCell>
        <mxCell id="W7IP5yYAX6OJ8UJhBNVD-30" value="39" style="ellipse;whiteSpace=wrap;html=1;aspect=fixed;" parent="1" vertex="1">
          <mxGeometry x="875" y="455" width="30" height="30" as="geometry" />
        </mxCell>
        <mxCell id="W7IP5yYAX6OJ8UJhBNVD-31" value="0" style="ellipse;whiteSpace=wrap;html=1;aspect=fixed;" parent="1" vertex="1">
          <mxGeometry x="165" y="335" width="30" height="30" as="geometry" />
        </mxCell>
      </root>
    </mxGraphModel>
  </diagram>
</mxfile>
